<svg width="41" height="40" viewBox="0 0 41 40" fill="none" xmlns="http://www.w3.org/2000/svg">
<path fill-rule="evenodd" clip-rule="evenodd" d="M35.2401 4.77998C36.5901 5.02998 37.8101 5.71998 38.7001 6.79998C41.4901 10.2 39.6601 15.38 35.3901 16.26C34.9046 16.3586 34.3746 16.3643 33.8042 16.3703C32.1774 16.3877 30.2216 16.4085 28.0301 18.6L27.4801 19.15L20.8501 12.52L21.4301 11.94C23.2001 10.17 23.6301 7.62998 23.6201 5.87998C23.6201 0.469981 30.1001 -1.84002 33.6301 1.68998C34.4801 2.53998 35.0301 3.61998 35.2401 4.77998ZM14.21 19.1501L19.19 14.1801L25.82 20.8101L20.85 25.7801L14.21 19.1501ZM12.5597 20.8101L11.9997 21.3601C10.4297 22.9301 8.35975 23.8001 6.46975 23.6001C1.17975 23.0501 -1.94025 29.1701 1.32975 33.1501C2.21975 34.2301 3.43975 34.9201 4.78975 35.1701C4.99975 36.3301 5.54975 37.4101 6.39975 38.2601C10.0897 41.9501 16.4097 39.3301 16.4097 34.0701C16.3997 32.3201 16.8297 29.7801 18.5897 28.0101L19.1697 27.4301L12.5597 20.8101ZM25.8202 24.13L30.6502 28.96C30.9602 29.26 31.0702 29.71 30.9402 30.12C30.8202 30.53 30.4702 30.85 30.0502 30.93L26.6702 31.61L25.9902 34.99C25.9002 35.41 25.5902 35.76 25.1802 35.88C24.7702 36.01 24.3202 35.9 24.0102 35.59L19.4102 30.99C19.6202 30.52 19.8802 30.07 20.2602 29.69L25.8202 24.13Z" fill="url(#paint0_linear_1_246)"/>
<defs>
<linearGradient id="paint0_linear_1_246" x1="20.0122" y1="0.00463867" x2="20.0122" y2="26.5" gradientUnits="userSpaceOnUse">
<stop stop-color="white" stop-opacity="0.6"/>
<stop offset="1" stop-color="white"/>
</linearGradient>
</defs>
</svg>
