<svg width="40" height="40" viewBox="0 0 40 40" fill="none" xmlns="http://www.w3.org/2000/svg">
<path fill-rule="evenodd" clip-rule="evenodd" d="M35.2201 4.7844L39.6601 9.22385C40.1101 9.68379 40.1101 10.4237 39.6601 10.8836C39.4301 11.1136 39.1301 11.2236 38.8301 11.2236C38.5301 11.2236 38.2301 11.1136 38.0001 10.8836L34.3901 7.26409L31.6101 10.0437L33.0001 11.4336C34.6801 13.1234 34.6801 15.853 33.0001 17.5328L30.7901 19.7425L27.6301 22.9121L24.1401 19.4226C23.6801 18.9626 22.9401 18.9626 22.4801 19.4226C22.0201 19.8825 22.0201 20.6224 22.4801 21.0824L25.9701 24.5719L23.8901 26.6517L18.6201 21.3823C18.1601 20.9224 17.4201 20.9224 16.9601 21.3823C16.5001 21.8423 16.5001 22.5822 16.9601 23.0421L22.2301 28.3115L20.1501 30.3912L16.6601 26.9016C16.2001 26.4417 15.4601 26.4417 15.0001 26.9016C14.5401 27.3616 14.5401 28.1015 15.0001 28.5614L18.4901 32.051L17.5401 33.0009C16.7301 33.8108 15.6501 34.2607 14.4901 34.2607C13.3301 34.2607 12.2501 33.8108 11.4401 33.0009L10.0501 31.611L2.00012 39.66C1.77012 39.89 1.47012 40 1.17012 40C0.870117 40 0.570117 39.89 0.340117 39.66C-0.119883 39.2001 -0.119883 38.4602 0.340117 38.0002L8.39012 29.9612L7.00012 28.5714C6.19012 27.7615 5.74012 26.6717 5.74012 25.5218C5.74012 24.362 6.19012 23.2821 7.00012 22.4722L20.2401 9.22385L22.4601 7.00412C23.2701 6.19422 24.3601 5.74428 25.5101 5.74428C26.6701 5.74428 27.7501 6.19422 28.5601 7.00412L29.9501 8.39395L32.7301 5.6143L29.1201 2.00475C28.6601 1.54481 28.6601 0.804899 29.1201 0.344957C29.5801 -0.114986 30.3201 -0.114986 30.7801 0.344957L35.2201 4.7844ZM29.9501 17.2728L31.3401 15.883C32.1101 15.1131 32.1101 13.8633 31.3401 13.1034L26.9001 8.66392C26.5301 8.29396 26.0401 8.09399 25.5101 8.09399C24.9801 8.09399 24.4901 8.29396 24.1201 8.66392L22.7301 10.0537L29.9501 17.2728ZM31.5698 27.1018C31.7898 26.8818 31.9098 26.5818 31.9098 26.2718C31.9098 25.9618 31.7798 25.6618 31.5698 25.4418C31.3498 25.2218 31.0498 25.1018 30.7398 25.1018C30.4298 25.1018 30.1298 25.2318 29.9098 25.4418C29.6898 25.6618 29.5698 25.9618 29.5698 26.2718C29.5698 26.5818 29.6998 26.8818 29.9098 27.1018C30.1298 27.3218 30.4298 27.4418 30.7398 27.4418C31.0498 27.4418 31.3498 27.3218 31.5698 27.1018ZM28.4899 28.0917C28.4899 28.4017 28.3699 28.7017 28.1499 28.9217C27.9299 29.1417 27.6299 29.2617 27.3199 29.2617C27.0099 29.2617 26.7099 29.1417 26.4899 28.9217C26.2799 28.7017 26.1499 28.4017 26.1499 28.0917C26.1499 27.7817 26.2699 27.4717 26.4899 27.2617C26.7099 27.0517 27.0099 26.9217 27.3199 26.9217C27.6299 26.9217 27.9299 27.0417 28.1499 27.2617C28.3599 27.4817 28.4899 27.7817 28.4899 28.0917ZM26.1099 36.7804C26.1099 33.2308 28.9999 30.3412 32.5499 30.3412C36.0999 30.3412 38.9899 33.2308 38.9899 36.7804C38.9899 37.4103 38.8099 38.0202 38.4699 38.5401C37.8699 39.45 36.8599 40 35.7699 40C34.9799 40 34.3699 39.82 33.8299 39.66L33.7996 39.6513L33.7996 39.6513C33.3632 39.5251 32.9995 39.42 32.5499 39.42C32.0899 39.42 31.7099 39.53 31.2699 39.66C30.7299 39.82 30.1199 40 29.3299 40C28.2399 40 27.2299 39.45 26.6299 38.5401C26.2899 38.0202 26.1099 37.4103 26.1099 36.7804ZM35.5299 26.2718C35.5299 26.5818 35.4099 26.8818 35.1899 27.1018C34.9799 27.3218 34.6699 27.4518 34.3599 27.4418C34.0499 27.4418 33.7499 27.3218 33.5299 27.1018C33.3199 26.8818 33.1899 26.5818 33.1899 26.2718C33.1899 25.9618 33.3099 25.6618 33.5299 25.4418C33.7499 25.2318 34.0499 25.1018 34.3599 25.1018C34.6699 25.1018 34.9699 25.2218 35.1899 25.4418C35.4099 25.6618 35.5299 25.9618 35.5299 26.2718ZM38.6099 28.9217C38.8299 28.7017 38.9499 28.4017 38.9499 28.0917C38.9499 27.7817 38.8199 27.4817 38.6099 27.2617C38.3899 27.0417 38.0899 26.9217 37.7799 26.9217C37.4699 26.9217 37.1699 27.0517 36.9499 27.2617C36.7299 27.4717 36.6099 27.7817 36.6099 28.0917C36.6099 28.4017 36.7399 28.7017 36.9499 28.9217C37.1699 29.1417 37.4699 29.2617 37.7799 29.2617C38.0899 29.2617 38.3899 29.1417 38.6099 28.9217Z" fill="url(#paint0_linear_1_204)"/>
<defs>
<linearGradient id="paint0_linear_1_204" x1="19.9964" y1="0" x2="19.9964" y2="24" gradientUnits="userSpaceOnUse">
<stop stop-color="white" stop-opacity="0.6"/>
<stop offset="1" stop-color="white"/>
</linearGradient>
</defs>
</svg>
